<?xml version="1.0" encoding="UTF-8" standalone="no"?>
<svg
   width="19"
   height="21"
   viewBox="0 0 19 21"
   fill="none"
   version="1.1"
   id="svg1"
   sodipodi:docname="Calendar.svg"
   xmlns:inkscape="http://www.inkscape.org/namespaces/inkscape"
   xmlns:sodipodi="http://sodipodi.sourceforge.net/DTD/sodipodi-0.dtd"
   xmlns="http://www.w3.org/2000/svg"
   xmlns:svg="http://www.w3.org/2000/svg">
  <sodipodi:namedview
     id="namedview1"
     pagecolor="#ffffff"
     bordercolor="#000000"
     borderopacity="0.25"
     inkscape:showpageshadow="2"
     inkscape:pageopacity="0.0"
     inkscape:pagecheckerboard="0"
     inkscape:deskcolor="#d1d1d1" />
  <g
     clip-path="url(#clip0_9320_412)"
     id="g1">
    <path
       d="M1.89172 8.33333H16.8917M1.89172 8.33333V16.1557C1.89172 17.1514 1.89172 17.6489 2.09609 18.0292C2.27585 18.3637 2.56248 18.636 2.91528 18.8064C3.31598 19 3.84078 19 4.88883 19H13.8946C14.9427 19 15.4667 19 15.8674 18.8064C16.2202 18.636 16.5078 18.3637 16.6876 18.0292C16.8917 17.6493 16.8917 17.1524 16.8917 16.1587V8.33333M1.89172 8.33333V7.6224C1.89172 6.62675 1.89172 6.12855 2.09609 5.74826C2.27585 5.41375 2.56248 5.14199 2.91528 4.97154C3.31637 4.77778 3.84181 4.77778 4.89191 4.77778H5.64172M16.8917 8.33333V7.61948C16.8917 6.62577 16.8917 6.12818 16.6876 5.74826C16.5078 5.41375 16.2202 5.14199 15.8674 4.97154C15.4663 4.77778 14.942 4.77778 13.8919 4.77778H13.1417M13.1417 3V4.77778M13.1417 4.77778H5.64172M5.64172 3V4.77778"
       stroke="black"
       stroke-width="2"
       stroke-linecap="round"
       stroke-linejoin="round"
       id="path1" />
  </g>
  <defs
     id="defs1">
    <clipPath
       id="clip0_9320_412">
      <rect
         width="19"
         height="21"
         fill="white"
         id="rect1" />
    </clipPath>
  </defs>
</svg>
